Genre:Animation | Comedy | Family
Language:English
IMDb:http://www.imdb.com/title/tt0398286/
Source:PROPER.1080p.BluRay.x264-CiNEFiLE
Subtitles:Romana


Format : MPEG-4
Format profile : Base Media
Codec ID : isom
File size : 2.46 GiB
Duration : 1h 40mn
Overall bit rate : 3 518 Kbps

Video
Format profile : High@L4.1
Format settings, CABAC : Yes
Format settings, ReFrames : 3 frames
Codec ID : avc1
Codec ID/Info : Advanced Video Coding
Duration : 1h 40mn
Bit rate mode : Variable
Bit rate : 3 054 Kbps
Maximum bit rate : 16.6 Mbps
Width : 1 280 pixels
Height : 720 pixels
Display aspect ratio : 16:9
Frame rate mode : Constant
Frame rate : 23.976 fps
Color space : YUV
Chroma subsampling : 4:2:0
Bit depth : 8 bits
Scan type : Progressive
Bits/(Pixel*Frame) : 0.138
Stream size : 2.15 GiB (87%)
Writing library : x264 

Audio
ID : 2
Format : AAC
Format/Info : Advanced Audio Codec
Format version : Version 4
Format profile : LC
Format settings, SBR : No
Codec ID : 40
Duration : 1h 40mn
Bit rate mode : Variable
Bit rate : 446 Kbps
Maximum bit rate : 546 Kbps
Channel(s) : 6 channels
Channel positions : Front: L C R, Side: L R, LFE
Sampling rate : 48.0 KHz
Stream size : 320 MiB (13%)


Plot:
The long-haired Princess Rapunzel has spent her entire life in a tower, but when she falls in love with a bandit who was passing by she must venture into the outside world for the first time to find him.
 
http://www.pix2links.com/images/56243399627443321682.png 
http://www.pix2links.com/images/19635404389366784959.png 
http://www.pix2links.com/images/39120293597162254920.png 
http://www.pix2links.com/images/74939276934904243905.png

Greets:

INK,CRYS,IMAGINE,LKRG,FXG,3Li,FLAWL3SS,TA,iLLUSiON,ViSiON,DTRG SAFCuk009,LU,TheFalcon007,MYSTiC,PrisM,Noir,WBZ,LAP,Rx,Kingdom,SAFCuk009+Fabreezy,HDLiTE,TWiZTED,ExtraTorrentRG.ELEKTRI4KA,MAGNAT,CM8
And to all the other p2p grps past and present 